#!OML:ASF E:\emotionWalksFemale\Project 1\Capture day 1\Session 1\Female1.ASF
:FULLY-SPECIFIED
:DEGREES
1336
root 8.38568 15.5629 -27.91 181.57 -12.416 -177.053
lowerback 6.84617 0.233026 1.56023
upperback -4.45919 0.482388 1.3709
thorax -8.55335 0.146144 0.511292
lowerneck -5.66087 4.31852 0.492909
upperneck 2.59821 5.70611 0.333636
head 1.77095 2.85726 0.204963
rclavicle -1.95057e-015 2.9122e-014
rhumerus -37.9681 -10.7158 -68.0903
rradius 34.5243
rwrist 20.8117
rhand -13.9502 -54.9344
rfingers 7.12502
rthumb 12.1771 275.44
lclavicle -1.95057e-015 2.9122e-014
lhumerus -43.082 -1.26834 86.1975
lradius 44.6178
lwrist -9.57818
lhand -6.26324 -37.1828
lfingers 7.12502
lthumb 19.5793 -8.14874
rfemur -10.4654 24.2436 26.4396
rtibia 15.6839
rfoot -13.7581 -40.853
rtoes 22.8322
lfemur -6.40189 -1.10683 -15.9541
ltibia 53.2079
lfoot -2.35146 3.09701
ltoes -37.2002
1337
root 8.40841 15.5639 -27.965 181.466 -12.9634 -176.716
lowerback 7.18949 0.25232 1.92956
upperback -4.41712 0.565246 1.45561
thorax -8.70769 0.167392 0.381092
lowerneck -5.65125 4.61094 0.984133
upperneck 2.33007 6.07939 -0.20583
head 1.71689 3.03433 -0.0356267
rclavicle -2.48481e-016 -1.48095e-014
rhumerus -37.2149 -10.9362 -67.6687
rradius 34.4328
rwrist 20.8829
rhand -15.0309 -54.7692
rfingers 7.12502
rthumb 11.135 275.546
lclavicle -2.48481e-016 -1.48095e-014
lhumerus -42.6874 -1.51032 86.4275
lradius 45.0698
lwrist -9.24578
lhand -6.78576 -37.8078
lfingers 7.12502
lthumb 19.0769 -8.72333
rfemur -9.71116 23.7238 27.0527
rtibia 14.7467
rfoot -13.3485 -40.9472
rtoes 22.9582
lfemur -7.87076 -0.931974 -15.4337
ltibia 55.4861
lfoot -1.17228 3.19462
ltoes -36.6473
1338
root 8.43042 15.5679 -28.0145 181.389 -13.4737 -176.208
lowerback 7.63824 0.290547 2.51104
upperback -4.4968 0.70213 1.56125
thorax -9.05449 0.196621 0.146474
lowerneck -5.48754 4.79195 1.50643
upperneck 2.09117 6.30278 -0.717897
head 1.64913 3.13837 -0.280695
rclavicle -9.87711e-016 -6.55989e-015
rhumerus -36.6177 -11.1 -67.2617
rradius 34.5396
rwrist 20.686
rhand -15.2696 -55.4188
rfingers 7.12502
rthumb 10.9047 274.884
lclavicle -9.87711e-016 -6.55989e-015
lhumerus -42.4637 -1.83334 86.719
lradius 45.5527
lwrist -8.72219
lhand -7.26018 -37.8838
lfingers 7.12502
lthumb 18.6206 -8.755
rfemur -9.00899 23.5516 27.782
rtibia 13.7133
rfoot -13.244 -41.2528
rtoes 23.5698
lfemur -9.54852 -0.815294 -14.7433
ltibia 57.7211
lfoot -0.221604 3.43261
ltoes -30.097
1339
root 8.45234 15.5682 -28.0735 181.153 -13.9309 -175.645
lowerback 7.85999 0.315416 2.93406
upperback -4.38308 0.805786 1.7928
thorax -9.05941 0.228057 0.138102
lowerneck -5.82109 5.02111 1.466
upperneck 2.11945 6.60717 -0.795297
head 1.72228 3.28599 -0.278358
rclavicle 9.85848e-015 6.4605e-015
rhumerus -35.8507 -11.3122 -66.783
rradius 34.6925
rwrist 20.8954
rhand -15.2876 -55.9779
rfingers 7.12502
rthumb 10.8873 274.324
lclavicle 9.85848e-015 6.4605e-015
lhumerus -42.1311 -2.01182 87.0798
lradius 46.1007
lwrist -8.09738
lhand -7.71292 -37.9064
lfingers 7.12502
lthumb 18.1851 -8.73649
rfemur -8.09608 23.5625 28.6537
rtibia 12.6688
rfoot -13.51 -41.6776
rtoes 24.4703
lfemur -10.9821 -0.65899 -13.9911
ltibia 59.7956
lfoot 0.150793 4.04999
ltoes -22.1839
1340
root 8.47539 15.5627 -28.1317 180.863 -14.389 -175.173
lowerback 8.1706 0.332669 3.26055
upperback -4.26313 0.891725 1.9773
thorax -9.11003 0.255592 0.135956
lowerneck -6.03509 5.24543 1.67458
upperneck 2.0398 6.8926 -1.02291
head 1.75526 3.4227 -0.368462
rclavicle -8.63471e-015 2.41523e-014
rhumerus -35.059 -11.5171 -66.3561
rradius 34.6325
rwrist 21.0803
rhand -15.5541 -56.1604
rfingers 7.12502
rthumb 10.6303 274.129
lclavicle -8.63471e-015 2.41523e-014
lhumerus -41.8447 -2.06764 87.3293
lradius 46.7119
lwrist -7.62522
lhand -8.01999 -37.9788
lfingers 7.12502
lthumb 17.8896 -8.78166
rfemur -7.17085 23.3756 29.4551
rtibia 11.6885
rfoot -13.5856 -41.9614
rtoes 25.4138
lfemur -12.2267 -0.485599 -13.3839
ltibia 61.6464
lfoot 0.000754203 4.90424
ltoes -19.9233
1341
root 8.49623 15.5564 -28.184 180.723 -14.8055 -174.929
lowerback 8.4358 0.371538 3.41739
upperback -4.16108 0.982162 2.07881
thorax -9.15322 0.293923 0.1397
lowerneck -6.09745 5.40372 1.77508
upperneck 1.76733 7.09102 -1.08952
head 1.68727 3.5188 -0.401134
rclavicle 6.92019e-015 2.66371e-014
rhumerus -34.1193 -11.638 -66.0266
rradius 34.4582
rwrist 20.8575
rhand -16.0365 -56.1744
rfingers 7.12502
rthumb 10.165 274.091
lclavicle 6.92019e-015 2.66371e-014
lhumerus -41.5438 -2.08127 87.5651
lradius 47.3873
lwrist -7.22096
lhand -8.23008 -37.5973
lfingers 7.12502
lthumb 17.6874 -8.38181
rfemur -6.52016 23.2287 29.9485
rtibia 10.9575
rfoot -13.2553 -42.2667
rtoes 25.5053
lfemur -13.4895 -0.247642 -13.0982
ltibia 63.2395
lfoot -0.480906 5.75119
ltoes -21.4335
1342
root 8.51428 15.5543 -28.2394 180.601 -15.202 -174.883
lowerback 8.65741 0.423507 3.49528
upperback -4.06004 1.07399 2.0572
thorax -9.16983 0.336092 0.0557576
lowerneck -5.9024 5.49331 1.83713
upperneck 1.34567 7.19962 -1.02211
head 1.51742 3.57368 -0.399341
rclavicle 2.50407e-014 1.95803e-014
rhumerus -33.3094 -11.8625 -65.753
rradius 34.3592
rwrist 20.7206
rhand -16.1542 -56.1978
rfingers 7.12502
rthumb 10.0514 274.062
lclavicle 2.50407e-014 1.95803e-014
lhumerus -41.3773 -2.32548 87.7743
lradius 48.187
lwrist -6.58465
lhand -8.3543 -37.1307
lfingers 7.12502
lthumb 17.5679 -7.90446
rfemur -6.05295 23.3111 30.2508
rtibia 10.7805
rfoot -13.4559 -42.8497
rtoes 26.6274
lfemur -14.6224 -0.105725 -13.0584
ltibia 64.5462
lfoot -1.46958 6.63184
ltoes -19.9173
1343
root 8.53262 15.5533 -28.2962 180.455 -15.6248 -174.851
lowerback 8.915 0.456328 3.50241
upperback -3.97342 1.13556 2.07691
thorax -9.22578 0.367879 0.0600991
lowerneck -5.80329 5.60255 1.94522
upperneck 1.08012 7.33795 -1.14018
head 1.42616 3.63958 -0.456061
rclavicle -5.78774e-014 -1.86858e-014
rhumerus -32.5391 -12.0516 -65.4512
rradius 34.2857
rwrist 20.7898
rhand -15.6928 -56.5469
rfingers 7.12502
rthumb 10.4965 273.735
lclavicle -5.78774e-014 -1.86858e-014
lhumerus -41.2423 -2.42047 87.9558
lradius 48.7968
lwrist -6.0749
lhand -8.50503 -37.0864
lfingers 7.12502
lthumb 17.4228 -7.84719
rfemur -5.75116 23.4858 30.5552
rtibia 11.045
rfoot -14.1557 -43.5775
rtoes 28.3016
lfemur -15.697 -0.00337422 -13.0814
ltibia 65.6123
lfoot -2.49059 7.28258
ltoes -19.8748
1344
root 8.55062 15.5431 -28.3471 180.361 -16.0821 -174.873
lowerback 9.19173 0.494304 3.47067
upperback -3.92947 1.20098 2.10697
thorax -9.34051 0.402357 0.0965685
lowerneck -5.61812 5.64427 2.1397
upperneck 0.791493 7.3902 -1.55117
head 1.32885 3.65786 -0.622803
rclavicle 2.80597e-014 -1.74931e-014
rhumerus -31.8115 -12.1807 -65.1094
rradius 34.169
rwrist 20.9007
rhand -15.485 -56.7491
rfingers 7.12502
rthumb 10.6969 273.543
lclavicle 2.80597e-014 -1.74931e-014
lhumerus -41.1204 -2.4769 88.197
lradius 49.2213
lwrist -5.72978
lhand -8.74097 -37.3723
lfingers 7.12502
lthumb 17.1958 -8.11317
rfemur -5.52776 23.619 30.7808
rtibia 11.3571
rfoot -15.4234 -43.96
rtoes 29.3821
lfemur -16.7738 0.188382 -13.2729
ltibia 66.4385
lfoot -2.70449 7.74652
ltoes -23.908
1345
root 8.56338 15.5313 -28.3909 180.412 -16.3054 -174.828
lowerback 9.25329 0.558044 3.53511
upperback -4.02232 1.30099 2.15559
thorax -9.47669 0.443589 0.0957812
lowerneck -4.97329 5.6877 2.29063
upperneck 0.482577 7.45699 -1.7849
head 1.13737 3.69182 -0.740964
rclavicle 1.7462e-014 3.97569e-015
rhumerus -31.2861 -12.0131 -64.8333
rradius 34.0748
rwrist 21.0762
rhand -15.5416 -56.7047
rfingers 7.12502
rthumb 10.6423 273.585
lclavicle 1.7462e-014 3.97569e-015
lhumerus -41.3712 -2.50977 88.4414
lradius 49.9232
lwrist -5.18188
lhand -8.74792 -37.3678
lfingers 7.12502
lthumb 17.1891 -8.10808
rfemur -5.64371 23.5568 30.9629
rtibia 11.836
rfoot -16.9199 -43.7489
rtoes 30.7223
lfemur -17.9555 0.528257 -13.4525
ltibia 67.0444
lfoot -4.29617 8.33819
ltoes -31.2789
1346
root 8.57553 15.5261 -28.4457 180.373 -16.5481 -174.71
lowerback 9.197 0.658358 3.605
upperback -3.77864 1.44232 2.25993
thorax -9.17462 0.518258 0.14289
lowerneck -5.60063 5.70282 2.05891
upperneck 0.591374 7.471 -1.64975
head 1.26429 3.69453 -0.641038
rclavicle 1.89964e-014 1.86858e-014
rhumerus -30.1667 -12.2317 -64.5621
rradius 33.9892
rwrist 21.4422
rhand -15.1616 -57.1352
rfingers 7.12502
rthumb 11.0089 273.174
lclavicle 1.89964e-014 1.86858e-014
lhumerus -41.0327 -2.79456 88.8125
lradius 50.6237
lwrist -4.39837
lhand -8.70967 -37.0665
lfingers 7.12502
lthumb 17.2259 -7.81001
rfemur -5.80975 23.6827 31.2835
rtibia 12.6616
rfoot -18.5662 -43.7868
rtoes 32.0068
lfemur -18.9534 0.778981 -13.5171
ltibia 67.4265
lfoot -5.33403 8.91675
ltoes -32.7288
1347
root 8.58692 15.5231 -28.5035 180.391 -16.7406 -174.843
lowerback 9.31479 0.744704 3.5377
upperback -3.77592 1.55318 2.14265
thorax -9.23624 0.57405 0.0349329
lowerneck -5.85619 5.74743 2.14218
upperneck 0.841272 7.51777 -1.42795
head 1.38292 3.72203 -0.573224
rclavicle 3.79617e-014 1.37161e-014
rhumerus -29.5955 -12.39 -64.5106
rradius 34.0445
rwrist 21.7654
rhand -14.6317 -58.1859
rfingers 7.12502
rthumb 11.52 272.151
lclavicle 3.79617e-014 1.37161e-014
lhumerus -41.2843 -3.25744 88.9019
lradius 51.3049
lwrist -3.70067
lhand -8.83077 -36.9677
lfingers 7.12502
lthumb 17.1093 -7.70106
rfemur -5.68976 23.6675 31.3429
rtibia 12.9548
rfoot -19.2382 -43.7825
rtoes 31.6417
lfemur -19.7828 0.995459 -13.9087
ltibia 67.4739
lfoot -5.9448 9.70544
ltoes -33.118
1348
root 8.60044 15.5162 -28.5545 180.444 -16.9737 -175.251
lowerback 9.40941 0.775009 2.99347
upperback -3.73057 1.53169 2.11251
thorax -9.25388 0.598956 0.309779
lowerneck -5.24348 5.7866 2.54447
upperneck 0.294572 7.56139 -1.91346
head 1.14316 3.73805 -0.814158
rclavicle -1.02747e-014 1.98785e-015
rhumerus -28.8868 -12.2841 -64.4764
rradius 34.1807
rwrist 21.5963
rhand -14.3521 -59.3804
rfingers 7.12502
rthumb 11.7896 270.971
lclavicle -1.02747e-014 1.98785e-015
lhumerus -41.4596 -3.25621 89.0678
lradius 51.8699
lwrist -3.27344
lhand -8.90988 -37.0363
lfingers 7.12502
lthumb 17.0332 -7.76305
rfemur -5.60268 23.6451 31.1408
rtibia 13.3866
rfoot -19.8597 -43.7898
rtoes 31.0165
lfemur -20.4452 1.23814 -14.6586
ltibia 67.4675
lfoot -7.85608 10.2749
ltoes -34.6878
1349
root 8.61139 15.5268 -28.6148 180.463 -17.2423 -174.992
lowerback 9.61837 0.887069 3.46631
upperback -3.87763 1.7522 2.06256
thorax -9.52108 0.668075 -0.049126
lowerneck -4.55812 5.60325 2.89789
upperneck -0.180799 7.31529 -2.25052
head 0.900593 3.61446 -1.01057
rclavicle -5.50696e-014 -9.74045e-015
rhumerus -28.6021 -12.5851 -64.3286
rradius 34.381
rwrist 20.8822
rhand -14.3919 -59.7357
rfingers 7.12502
rthumb 11.7512 270.614
lclavicle -5.50696e-014 -9.74045e-015
lhumerus -41.7543 -3.9581 89.3826
lradius 52.3567
lwrist -2.55543
lhand -8.81516 -36.9526
lfingers 7.12502
lthumb 17.1244 -7.68727
rfemur -5.74855 23.4959 31.5732
rtibia 14.0061
rfoot -20.6972 -43.7693
rtoes 31.05
lfemur -21.8486 1.14903 -14.5433
ltibia 67.1425
lfoot -9.18478 10.4722
ltoes -30.8188
